<?xml version="1.0" standalone="no"?>
<!DOCTYPE svg PUBLIC "-//W3C//DTD SVG 20010904//EN"
 "http://www.w3.org/TR/2001/REC-SVG-20010904/DTD/svg10.dtd">
<svg version="1.0" xmlns="http://www.w3.org/2000/svg"
 width="252.000000pt" height="178.000000pt" viewBox="0 0 252.000000 178.000000"
 preserveAspectRatio="xMidYMid meet">

<g transform="translate(0.000000,178.000000) scale(0.100000,-0.100000)"
fill="#000000" stroke="none">
<path d="M1690 1483 c0 -4 0 -206 0 -448 0 -487 -5 -555 -45 -594 l-25 -26
-444 4 -444 3 -4 -57 c-1 -31 -1 -59 1 -61 2 -2 205 -4 450 -4 413 0 449 2
487 19 23 10 53 32 68 47 54 59 56 84 54 624 l-3 495 -47 3 c-27 2 -48 -1 -48
-5z"/>
<path d="M722 1028 l3 -453 57 -3 58 -3 2 378 3 378 29 -85 c16 -47 74 -217
129 -377 l99 -293 53 0 c51 0 54 1 65 33 6 17 61 176 122 352 61 176 114 327
119 335 5 8 9 -147 9 -353 l0 -368 58 3 57 3 3 453 2 452 -84 0 -83 0 -88
-257 c-163 -477 -174 -507 -179 -492 -2 7 -59 179 -126 382 l-122 367 -94 0
-94 0 2 -452z"/>
<path d="M730 510 c0 -17 7 -20 40 -20 23 0 40 -5 40 -11 0 -8 -14 -10 -40 -6
-22 3 -40 1 -40 -4 0 -5 23 -9 51 -9 43 0 50 3 47 18 -2 12 -14 18 -41 20 -20
2 -37 8 -37 14 0 7 15 9 40 5 22 -3 40 -1 40 4 0 5 -22 9 -50 9 -43 0 -50 -3
-50 -20z"/>
<path d="M878 505 c-26 -35 -23 -40 32 -40 56 0 62 10 27 43 -29 28 -38 27
-59 -3z m47 -5 c3 -5 -3 -10 -15 -10 -12 0 -18 5 -15 10 3 6 10 10 15 10 5 0
12 -4 15 -10z"/>
<path d="M990 495 l0 -35 50 0 c28 0 50 4 50 9 0 5 -18 7 -40 4 -38 -5 -40 -4
-40 22 0 26 2 27 40 22 22 -3 40 -1 40 4 0 5 -22 9 -50 9 l-50 0 0 -35z"/>
<path d="M1114 516 c-14 -37 0 -51 51 -51 49 0 50 1 50 30 0 29 -2 30 -48 33
-35 2 -49 -1 -53 -12z m84 -23 c3 -20 -1 -23 -27 -23 -27 0 -31 4 -31 26 0 22
4 25 28 22 19 -2 28 -9 30 -25z"/>
<path d="M1240 495 l0 -35 58 2 c49 1 51 2 15 5 -40 4 -43 6 -43 34 0 19 -5
29 -15 29 -10 0 -15 -11 -15 -35z"/>
<path d="M1381 501 c-12 -16 -21 -31 -21 -33 0 -2 25 -4 55 -4 30 1 55 4 55 7
0 14 -42 59 -55 59 -8 0 -23 -13 -34 -29z m44 -1 c3 -5 -1 -10 -10 -10 -9 0
-13 5 -10 10 3 6 8 10 10 10 2 0 7 -4 10 -10z"/>
<path d="M1495 520 c-11 -18 5 -30 40 -30 19 0 37 -5 41 -11 5 -8 -6 -10 -35
-7 -22 2 -41 0 -41 -4 0 -5 23 -8 51 -8 43 0 50 3 47 18 -2 12 -14 18 -41 20
-20 2 -37 8 -37 14 0 7 15 9 40 5 23 -3 38 -1 34 4 -7 12 -91 11 -99 -1z"/>
<path d="M1832 384 c-32 -22 -30 -78 3 -100 61 -40 128 43 75 96 -24 24 -48
25 -78 4z m79 -27 c17 -31 -4 -67 -39 -67 -34 0 -52 16 -52 46 0 48 69 64 91
21z"/>
<path d="M1832 348 c3 -7 18 -16 34 -19 l29 -6 -35 -5 c-34 -5 -34 -6 5 -4 47
1 53 18 10 27 l-30 6 30 5 c28 5 27 5 -8 7 -27 1 -37 -3 -35 -11z"/>
</g>
</svg>
